# xmcd CD database file
#
# Track frame offsets:
#	150
#	22437
#	41622
#	63137
#	83617
#	104425
#	124402
#	145370
#	159937
#	177090
#	195535
#	211810
#	231567
#	247507
#	266877
#
# Disc length: 3849 seconds
#
# Revision: 0
# Processed by: cddbd v1.5PL3 Copyright (c) Steve Scherf et al.
# Submitted via: CDex 1.51
#
DISCID=d00f070f
DTITLE=いろいろ - NEW MUSIC BEST COLLECTION 10
DYEAR=1992
DGENRE=JPop
TTITLE0=THE ALFEE - 1月の雨を忘れない
TTITLE1=THE ALFEE - メリーアン
TTITLE2=川村かおり - 神様が降りて来る夜
TTITLE3=川村かおり - 翼をください
TTITLE4=斉藤由紀/来生たかお - ORACION -祈り-
TTITLE5=平松愛理 - 素敵なルネッサンス
TTITLE6=松山千春 - 恋
TTITLE7=松山千春 - 季節の中で
TTITLE8=関口誠人 - 東京・Lovers Map
TTITLE9=崎谷健次郎 - もう一度夜を止めて
TTITLE10=ツイスト - 燃えろいい女
TTITLE11=世良公則&ツイスト - あんたのバラード
TTITLE12=Char - 気絶するほど悩ましい
TTITLE13=高樹澪 - ダンスはうまく踊れない
TTITLE14=クリスタルキング - 大都会
EXTD=YEAR: 1992
EXTT0=
EXTT1=
EXTT2=
EXTT3=
EXTT4=
EXTT5=
EXTT6=
EXTT7=
EXTT8=
EXTT9=
EXTT10=
EXTT11=
EXTT12=
EXTT13=
EXTT14=
PLAYORDER=
